<?xml version="1.0" encoding="UTF-8"?>
<svg width="752pt" height="752pt" version="1.1" viewBox="0 0 752 752" xmlns="http://www.w3.org/2000/svg">
 <path d="m287.43 572.85v3.3203h-0.86328v-3.7227c-1.0742-1.1758-3.9492-4.4531-5.8633-7.9883-2.3945-4.418-4.043-8.457-4.6172-10.859-0.55469-2.3945 53.16-52.52 53.16-52.52l-0.25781-10.473-99.598 20.332v-5.1328s-0.60156 5.7773-3.0859 5.7773c-2.4961 0-3.0977-5.7773-3.0977-5.7773v-70.32c0-3.5391 2.0664-7.4883 3.0977-7.8242 1.0273 0.33594 3.0859 4.2852 3.0859 7.8242v35.047l0.19531-0.019531 104.21-93.992s4.2188-5.668 4.1523-15.586c-9.5391 6.2461-27.648 16.578-27.648 16.578s-1-6.5703-0.3125-9.9688c0.69922-3.4102 29.23-40.211 29.23-40.211s13.18-18.547 14.645-29.727c1.4727-11.188 7.5781-45.453 7.5781-45.453s1.793-20.266 2.1172-24.367c0.3125-4.1016 1.6016-21.07 4.2422-30.152 2.6484-9.0938 5.2539-15.738 7.1406-21.258l0.60156-9.3711 0.25-5.625 0.20703-1.5391 0.20312 1.5391 0.26172 5.625 0.59375 9.3711c1.8867 5.5234 4.4961 12.168 7.1523 21.258 2.6484 9.082 3.9297 26.051 4.2422 30.152 0.26953 3.4805 1.6094 18.59 2 23.098l1.5156-0.66797v-1.9922c0-0.60156 0.46484-1.3828 0.46484-1.3828v-9.0625h0.57422v9.0625l0.37891 1.1016s0.046875 3.6133-0.21484 4.6094c-0.25 0.89062-1.2695 1.1211-2.2031 1.8438 1.3789 7.7852 5.9375 33.742 7.1719 43.211 1.4648 11.18 14.652 29.727 14.652 29.727s28.523 36.801 29.23 40.211c0.69141 3.4062-0.32031 9.9688-0.32031 9.9688s-18.109-10.332-27.648-16.578c-0.058594 9.918 4.1523 15.586 4.1523 15.586l104.21 93.992 0.20312 0.019531v-35.047c0-3.5391 2.0664-7.4883 3.0859-7.8242 1.0273 0.33594 3.0977 4.2852 3.0977 7.8242v70.32s-0.60156 5.7773-3.0977 5.7773c-2.4844 0-3.0859-5.7773-3.0859-5.7773v5.1289l-99.617-20.328-0.25 10.477s53.723 50.125 53.148 52.52c-0.57422 2.4023-2.2109 6.4414-4.6172 10.859-1.9141 3.5312-4.793 6.8086-5.8633 7.9883v3.7227h-0.85156v-3.3203l-4.2891-0.57812v3.2109h-0.85156v-3.3203l-5.0469-0.67188v3.2617h-0.85156v-3.3867l-32.086-4.2734-7.2109-19.188c-0.75 5.5469-2.3867 17.418-2.9141 19.043-0.69141 2.1445-3.1914 2.1445-4.8828 2.1445h-8.9375c-1.6914 0-4.1914 0-4.8828-2.1445-0.45312-1.3828-1.6992-10.148-2.5156-16.16l-1.3594 11.254c-0.71875 3.4922-2.2109 4.4883-4.5625 4.6875 0 0-1.7188 20.844-8.1875 25.418-6.4648-4.5742-8.1875-25.418-8.1875-25.418-2.3477-0.19922-3.8398-1.1992-4.5625-4.6875l-1.3594-11.254c-0.82422 6.0156-2.0664 14.777-2.5234 16.16-0.6875 2.1445-3.1719 2.1445-4.875 2.1445h-8.9375c-1.6797 0-4.1836 0-4.875-2.1445-0.53516-1.6289-2.1641-13.512-2.9023-19.047l-7.2227 19.195-32.074 4.2734v3.3867h-0.86328v-3.2617l-5.0469 0.67188v3.3203h-0.84375v-3.2109z" fill-rule="evenodd"/>
</svg>
